<svg width="32" height="32" viewBox="0 0 32 32" fill="none" xmlns="http://www.w3.org/2000/svg">
<g clip-path="url(#logo_clip)">
<path fill-rule="evenodd" clip-rule="evenodd" d="M6 2C3.79086 2 2 3.79086 2 6V26C2 28.2091 3.79086 30 6 30H26C28.2091 30 30 28.2091 30 26V6C30 3.79086 28.2091 2 26 2H6ZM6 28C4.89543 28 4 27.1046 4 26V6C4 4.89543 4.89543 4 6 4H26C27.1046 4 28 4.89543 28 6V26C28 27.1046 27.1046 28 26 28H6Z" fill="currentColor"/>
<path d="M26.6826 5.31743L5.31743 26.6826C3.93704 28.063 4.04784 30.5 6 30.5H26C28.4853 30.5 30.5 28.4853 30.5 26V6C30.5 4.04784 28.063 3.93704 26.6826 5.31743Z" fill="currentColor"/>
</g>
<defs>
<clipPath id="logo_clip">
<rect width="32" height="32" rx="6" fill="white"/>
</clipPath>
</defs>
</svg>
